<svg width="161" height="118" viewBox="0 0 161 118" fill="none" xmlns="http://www.w3.org/2000/svg">
<circle cx="2.55897" cy="2.55897" r="2.55897" fill="#C4C4C4" fill-opacity="0.4"/>
<circle cx="16.6769" cy="2.55897" r="2.55897" fill="#C4C4C4" fill-opacity="0.4"/>
<circle cx="30.7948" cy="2.55897" r="2.55897" fill="#C4C4C4" fill-opacity="0.4"/>
<circle cx="44.9128" cy="2.55897" r="2.55897" fill="#C4C4C4" fill-opacity="0.4"/>
<circle cx="59.0307" cy="2.55897" r="2.55897" fill="#C4C4C4" fill-opacity="0.4"/>
<circle cx="73.1486" cy="2.55897" r="2.55897" fill="#C4C4C4" fill-opacity="0.4"/>
<circle cx="87.2665" cy="2.55897" r="2.55897" fill="#C4C4C4" fill-opacity="0.4"/>
<circle cx="101.384" cy="2.55897" r="2.55897" fill="#C4C4C4" fill-opacity="0.4"/>
<circle cx="115.502" cy="2.55897" r="2.55897" fill="#C4C4C4" fill-opacity="0.4"/>
<circle cx="129.62" cy="2.55897" r="2.55897" fill="#C4C4C4" fill-opacity="0.4"/>
<circle cx="143.738" cy="2.55897" r="2.55897" fill="#C4C4C4" fill-opacity="0.4"/>
<circle cx="157.856" cy="2.55897" r="2.55897" fill="#C4C4C4" fill-opacity="0.4"/>
<circle cx="2.55897" cy="18.6769" r="2.55897" fill="#C4C4C4" fill-opacity="0.4"/>
<circle cx="16.6769" cy="18.6769" r="2.55897" fill="#C4C4C4" fill-opacity="0.4"/>
<circle cx="30.7948" cy="18.6769" r="2.55897" fill="#C4C4C4" fill-opacity="0.4"/>
<circle cx="44.9128" cy="18.6769" r="2.55897" fill="#C4C4C4" fill-opacity="0.4"/>
<circle cx="59.0307" cy="18.6769" r="2.55897" fill="#C4C4C4" fill-opacity="0.4"/>
<circle cx="73.1486" cy="18.6769" r="2.55897" fill="#C4C4C4" fill-opacity="0.4"/>
<circle cx="87.2665" cy="18.6769" r="2.55897" fill="#C4C4C4" fill-opacity="0.4"/>
<circle cx="101.384" cy="18.6769" r="2.55897" fill="#C4C4C4" fill-opacity="0.4"/>
<circle cx="115.502" cy="18.6769" r="2.55897" fill="#C4C4C4" fill-opacity="0.4"/>
<circle cx="129.62" cy="18.6769" r="2.55897" fill="#C4C4C4" fill-opacity="0.4"/>
<circle cx="143.738" cy="18.6769" r="2.55897" fill="#C4C4C4" fill-opacity="0.4"/>
<circle cx="157.856" cy="18.6769" r="2.55897" fill="#C4C4C4" fill-opacity="0.4"/>
<circle cx="2.55897" cy="34.7948" r="2.55897" fill="#C4C4C4" fill-opacity="0.4"/>
<circle cx="16.6769" cy="34.7948" r="2.55897" fill="#C4C4C4" fill-opacity="0.4"/>
<circle cx="30.7948" cy="34.7948" r="2.55897" fill="#C4C4C4" fill-opacity="0.4"/>
<circle cx="44.9128" cy="34.7948" r="2.55897" fill="#C4C4C4" fill-opacity="0.4"/>
<circle cx="59.0307" cy="34.7948" r="2.55897" fill="#C4C4C4" fill-opacity="0.4"/>
<circle cx="73.1486" cy="34.7948" r="2.55897" fill="#C4C4C4" fill-opacity="0.4"/>
<circle cx="87.2665" cy="34.7948" r="2.55897" fill="#C4C4C4" fill-opacity="0.4"/>
<circle cx="101.384" cy="34.7948" r="2.55897" fill="#C4C4C4" fill-opacity="0.4"/>
<circle cx="115.502" cy="34.7948" r="2.55897" fill="#C4C4C4" fill-opacity="0.4"/>
<circle cx="129.62" cy="34.7948" r="2.55897" fill="#C4C4C4" fill-opacity="0.4"/>
<circle cx="143.738" cy="34.7948" r="2.55897" fill="#C4C4C4" fill-opacity="0.4"/>
<circle cx="157.856" cy="34.7948" r="2.55897" fill="#C4C4C4" fill-opacity="0.4"/>
<circle cx="2.55897" cy="50.9128" r="2.55897" fill="#C4C4C4" fill-opacity="0.4"/>
<circle cx="16.6769" cy="50.9128" r="2.55897" fill="#C4C4C4" fill-opacity="0.4"/>
<circle cx="30.7948" cy="50.9128" r="2.55897" fill="#C4C4C4" fill-opacity="0.4"/>
<circle cx="44.9128" cy="50.9128" r="2.55897" fill="#C4C4C4" fill-opacity="0.4"/>
<circle cx="59.0307" cy="50.9128" r="2.55897" fill="#C4C4C4" fill-opacity="0.4"/>
<circle cx="73.1486" cy="50.9128" r="2.55897" fill="#C4C4C4" fill-opacity="0.4"/>
<circle cx="87.2665" cy="50.9128" r="2.55897" fill="#C4C4C4" fill-opacity="0.4"/>
<circle cx="101.384" cy="50.9128" r="2.55897" fill="#C4C4C4" fill-opacity="0.4"/>
<circle cx="115.502" cy="50.9128" r="2.55897" fill="#C4C4C4" fill-opacity="0.4"/>
<circle cx="129.62" cy="50.9128" r="2.55897" fill="#C4C4C4" fill-opacity="0.4"/>
<circle cx="143.738" cy="50.9128" r="2.55897" fill="#C4C4C4" fill-opacity="0.4"/>
<circle cx="157.856" cy="50.9128" r="2.55897" fill="#C4C4C4" fill-opacity="0.4"/>
<circle cx="2.55897" cy="67.0307" r="2.55897" fill="#C4C4C4" fill-opacity="0.4"/>
<circle cx="16.6769" cy="67.0307" r="2.55897" fill="#C4C4C4" fill-opacity="0.4"/>
<circle cx="30.7948" cy="67.0307" r="2.55897" fill="#C4C4C4" fill-opacity="0.4"/>
<circle cx="44.9128" cy="67.0307" r="2.55897" fill="#C4C4C4" fill-opacity="0.4"/>
<circle cx="59.0307" cy="67.0307" r="2.55897" fill="#C4C4C4" fill-opacity="0.4"/>
<circle cx="73.1486" cy="67.0307" r="2.55897" fill="#C4C4C4" fill-opacity="0.4"/>
<circle cx="87.2665" cy="67.0307" r="2.55897" fill="#C4C4C4" fill-opacity="0.4"/>
<circle cx="101.384" cy="67.0307" r="2.55897" fill="#C4C4C4" fill-opacity="0.4"/>
<circle cx="115.502" cy="67.0307" r="2.55897" fill="#C4C4C4" fill-opacity="0.4"/>
<circle cx="129.62" cy="67.0307" r="2.55897" fill="#C4C4C4" fill-opacity="0.4"/>
<circle cx="143.738" cy="67.0307" r="2.55897" fill="#C4C4C4" fill-opacity="0.4"/>
<circle cx="157.856" cy="67.0307" r="2.55897" fill="#C4C4C4" fill-opacity="0.4"/>
<circle cx="2.55897" cy="83.1486" r="2.55897" fill="#C4C4C4" fill-opacity="0.4"/>
<circle cx="16.6769" cy="83.1486" r="2.55897" fill="#C4C4C4" fill-opacity="0.4"/>
<circle cx="30.7948" cy="83.1486" r="2.55897" fill="#C4C4C4" fill-opacity="0.4"/>
<circle cx="44.9128" cy="83.1486" r="2.55897" fill="#C4C4C4" fill-opacity="0.4"/>
<circle cx="59.0307" cy="83.1486" r="2.55897" fill="#C4C4C4" fill-opacity="0.4"/>
<circle cx="73.1486" cy="83.1486" r="2.55897" fill="#C4C4C4" fill-opacity="0.4"/>
<circle cx="87.2665" cy="83.1486" r="2.55897" fill="#C4C4C4" fill-opacity="0.4"/>
<circle cx="101.384" cy="83.1486" r="2.55897" fill="#C4C4C4" fill-opacity="0.4"/>
<circle cx="115.502" cy="83.1486" r="2.55897" fill="#C4C4C4" fill-opacity="0.4"/>
<circle cx="129.62" cy="83.1486" r="2.55897" fill="#C4C4C4" fill-opacity="0.4"/>
<circle cx="143.738" cy="83.1486" r="2.55897" fill="#C4C4C4" fill-opacity="0.4"/>
<circle cx="157.856" cy="83.1486" r="2.55897" fill="#C4C4C4" fill-opacity="0.4"/>
<circle cx="2.55897" cy="99.2666" r="2.55897" fill="#C4C4C4" fill-opacity="0.4"/>
<circle cx="16.6769" cy="99.2666" r="2.55897" fill="#C4C4C4" fill-opacity="0.4"/>
<circle cx="30.7948" cy="99.2666" r="2.55897" fill="#C4C4C4" fill-opacity="0.4"/>
<circle cx="44.9128" cy="99.2666" r="2.55897" fill="#C4C4C4" fill-opacity="0.4"/>
<circle cx="59.0307" cy="99.2666" r="2.55897" fill="#C4C4C4" fill-opacity="0.4"/>
<circle cx="73.1486" cy="99.2666" r="2.55897" fill="#C4C4C4" fill-opacity="0.4"/>
<circle cx="87.2665" cy="99.2666" r="2.55897" fill="#C4C4C4" fill-opacity="0.4"/>
<circle cx="101.384" cy="99.2666" r="2.55897" fill="#C4C4C4" fill-opacity="0.4"/>
<circle cx="115.502" cy="99.2666" r="2.55897" fill="#C4C4C4" fill-opacity="0.4"/>
<circle cx="129.62" cy="99.2666" r="2.55897" fill="#C4C4C4" fill-opacity="0.4"/>
<circle cx="143.738" cy="99.2666" r="2.55897" fill="#C4C4C4" fill-opacity="0.4"/>
<circle cx="157.856" cy="99.2666" r="2.55897" fill="#C4C4C4" fill-opacity="0.4"/>
<circle cx="2.55897" cy="115.385" r="2.55897" fill="#C4C4C4" fill-opacity="0.4"/>
<circle cx="16.6769" cy="115.385" r="2.55897" fill="#C4C4C4" fill-opacity="0.4"/>
<circle cx="30.7948" cy="115.385" r="2.55897" fill="#C4C4C4" fill-opacity="0.4"/>
<circle cx="44.9128" cy="115.385" r="2.55897" fill="#C4C4C4" fill-opacity="0.4"/>
<circle cx="59.0307" cy="115.385" r="2.55897" fill="#C4C4C4" fill-opacity="0.4"/>
<circle cx="73.1486" cy="115.385" r="2.55897" fill="#C4C4C4" fill-opacity="0.4"/>
<circle cx="87.2665" cy="115.385" r="2.55897" fill="#C4C4C4" fill-opacity="0.4"/>
<circle cx="101.384" cy="115.385" r="2.55897" fill="#C4C4C4" fill-opacity="0.4"/>
<circle cx="115.502" cy="115.385" r="2.55897" fill="#C4C4C4" fill-opacity="0.4"/>
<circle cx="129.62" cy="115.385" r="2.55897" fill="#C4C4C4" fill-opacity="0.4"/>
<circle cx="143.738" cy="115.385" r="2.55897" fill="#C4C4C4" fill-opacity="0.4"/>
<circle cx="157.856" cy="115.385" r="2.55897" fill="#C4C4C4" fill-opacity="0.4"/>
</svg>
